{
  "accessors": [
    {
      "bufferView": 2,
      "componentType": 5126,
      "count": 12335,
      "max": [
        0.23854699730873108,
        0.23373299837112427,
        0.6369109749794006
      ],
      "min": [
        -0.23854699730873108,
        -0.254366010427475,
        -0.6878460049629211
      ],
      "type": "VEC3"
    },
    {
      "bufferView": 2,
      "byteOffset": 148020,
      "componentType": 5126,
      "count": 12335,
      "max": [
        1.0,
        1.0,
        1.0
      ],
      "min": [
        -1.0,
        -1.0,
        -1.0
      ],
      "type": "VEC3"
    },
    {
      "bufferView": 3,
      "componentType": 5126,
      "count": 12335,
      "max": [
        0.9999896287918091,
        0.9999932050704956,
        1.0,
        1.0
      ],
      "min": [
        -0.9999887347221375,
        -0.9999988675117493,
        -0.9999722242355347,
        -1.0
      ],
      "type": "VEC4"
    },
    {
      "bufferView": 1,
      "componentType": 5126,
      "count": 12335,
      "max": [
        0.9977710247039795,
        0.9980469942092896
      ],
      "min": [
        0.0019529999699443579,
        0.0019529999699443579
      ],
      "type": "VEC2"
    },
    {
      "bufferView": 0,
      "componentType": 5125,
      "count": 65412,
      "type": "SCALAR"
    }
  ],
  "asset": {
    "extras": {
      "author": "Andy woodhead (https://sketchfab.com/Andywoodhead)",
      "license": "CC-BY-4.0 (http://creativecommons.org/licenses/by/4.0/)",
      "source": "https://sketchfab.com/3d-models/medieval-plough-cd6921ec6eae484b93a31919d7fb106d",
      "title": "Medieval Plough"
    },
    "generator": "Sketchfab-13.12.0",
    "version": "2.0"
  },
  "bufferViews": [
    {
      "buffer": 0,
      "byteLength": 261648,
      "name": "floatBufferViews",
      "target": 34963
    },
    {
      "buffer": 0,
      "byteLength": 98680,
      "byteOffset": 261648,
      "byteStride": 8,
      "name": "floatBufferViews",
      "target": 34962
    },
    {
      "buffer": 0,
      "byteLength": 296040,
      "byteOffset": 360328,
      "byteStride": 12,
      "name": "floatBufferViews",
      "target": 34962
    },
    {
      "buffer": 0,
      "byteLength": 197360,
      "byteOffset": 656368,
      "byteStride": 16,
      "name": "floatBufferViews",
      "target": 34962
    }
  ],
  "buffers": [
    {
      "byteLength": 853728,
      "uri": "scene.bin"
    }
  ],
  "images": [
    {
      "uri": "textures/plough_31_baseColor.webp"
    },
    {
      "uri": "textures/plough_31_metallicRoughness.webp"
    },
    {
      "uri": "textures/plough_31_normal.webp"
    }
  ],
  "materials": [
    {
      "doubleSided": true,
      "name": "plough_31",
      "normalTexture": {
        "index": 2
      },
      "occlusionTexture": {
        "index": 1
      },
      "pbrMetallicRoughness": {
        "baseColorTexture": {
          "index": 0
        },
        "metallicRoughnessTexture": {
          "index": 1
        }
      }
    }
  ],
  "meshes": [
    {
      "name": "defaultMaterial",
      "primitives": [
        {
          "attributes": {
            "NORMAL": 1,
            "POSITION": 0,
            "TANGENT": 2,
            "TEXCOORD_0": 3
          },
          "indices": 4,
          "material": 0,
          "mode": 4
        }
      ]
    }
  ],
  "nodes": [
    {
      "children": [
        1
      ],
      "matrix": [
        1.0,
        0.0,
        0.0,
        0.0,
        0.0,
        2.220446049250313e-16,
        -1.0,
        0.0,
        0.0,
        1.0,
        2.220446049250313e-16,
        0.0,
        0.0,
        0.0,
        0.0,
        1.0
      ],
      "name": "Sketchfab_model"
    },
    {
      "children": [
        2
      ],
      "matrix": [
        1.0,
        0.0,
        0.0,
        0.0,
        0.0,
        -4.371139006309477e-08,
        0.999999999999999,
        0.0,
        0.0,
        -0.999999999999999,
        -4.371139006309477e-08,
        0.0,
        0.0,
        0.0,
        0.0,
        1.0
      ],
      "name": "Collada visual scene group"
    },
    {
      "children": [
        3
      ],
      "name": "plough"
    },
    {
      "mesh": 0,
      "name": "defaultMaterial"
    }
  ],
  "samplers": [
    {
      "magFilter": 9729,
      "minFilter": 9987,
      "wrapS": 10497,
      "wrapT": 10497
    }
  ],
  "scene": 0,
  "scenes": [
    {
      "name": "Sketchfab_Scene",
      "nodes": [
        0
      ]
    }
  ],
  "textures": [
    {
      "sampler": 0,
      "source": 0
    },
    {
      "sampler": 0,
      "source": 1
    },
    {
      "sampler": 0,
      "source": 2
    }
  ]
}
